SPORT: Scrum V Live - Scarlets v Edinburgh
On: BBC 2 Wales
Date: Friday 1st March 2013 
Time: 19:00 to 21:00 

The Scarlets welcome Edinburgh to Parc y Scarlets for this Pro 12 clash. Simon Easterby's team must win if they want to keep their play-off dreams alive. Jonathan Davies is in commentary with Gareth Charles. Shane Williams joins Ross Harries in studio. Check out the ReadMe file for more details.


General
Complete name: 013.03.01.Scarlets.v.Edinburgh.pdtv.x264.mp4
Format: MPEG-4
Format profile: Base Media
Codec ID: isom
File size: 1.50 GiB
Duration: 1h 59mn
Overall bit rate mode: Variable
Overall bit rate: 1 799 Kbps

Video
ID: 1
Format: AVC
Format/Info: Advanced Video Codec
Format profile: High@L3.1
Format settings, CABAC: Yes
Format settings, ReFrames: 15 frames
Codec ID: avc1
Codec ID/Info: Advanced Video Coding
Duration: 1h 59mn
Bit rate: 1 667 Kbps
Maximum bit rate: 5 141 Kbps
Width: 720 pixels
Height: 416 pixels
Display aspect ratio: 1.731
Frame rate mode: Constant
Frame rate: 25.000 fps
Color space: YUV
Chroma subsampling: 4:2:0
Bit depth: 8 bits
Scan type: Progressive
Bits/(Pixel*Frame): 0.223
Stream size: 1.39 GiB (93%)
Writing library: x264 core 129 r2245 bc13772

Audio
ID: 2
Format: AAC
Format/Info: Advanced Audio Codec
Format profile: LC
Codec ID: 40
Duration: 1h 59mn
Bit rate mode: Variable
Bit rate: 128 Kbps
Maximum bit rate: 146 Kbps
Channel(s): 2 channels
Channel positions: Front: L R
Sampling rate: 48.0 KHz
Compression mode: Lossy
Delay relative to video: 80ms
Stream size: 109 MiB (7%)
Language: English

